<svg viewBox="0 0 900 320" xmlns="http://www.w3.org/2000/svg" font-family="'JetBrains Mono','Courier New',monospace">
  <defs>
    <linearGradient id="bgGrad" x1="0" y1="0" x2="0" y2="1">
      <stop offset="0%" stop-color="#0c1117"/>
      <stop offset="100%" stop-color="#060809"/>
    </linearGradient>
    <filter id="glow" x="-50%" y="-50%" width="200%" height="200%">
      <feGaussianBlur stdDeviation="3.2" result="blur"/>
      <feMerge>
        <feMergeNode in="blur"/>
        <feMergeNode in="SourceGraphic"/>
      </feMerge>
    </filter>
    <linearGradient id="chartFade" x1="0" y1="0" x2="0" y2="1">
      <stop offset="0%" stop-color="#3ddc84" stop-opacity="0.12"/>
      <stop offset="100%" stop-color="#3ddc84" stop-opacity="0"/>
    </linearGradient>
  </defs>

  <!-- outer frame -->
  <rect x="1" y="1" width="898" height="318" rx="10" fill="url(#bgGrad)" stroke="#1c2733" stroke-width="1.5"/>
  <rect x="1" y="1" width="898" height="318" rx="10" fill="none" stroke="#3ddc84" stroke-opacity="0.15" stroke-width="1"/>

  <!-- title bar -->
  <circle cx="24" cy="26" r="4.5" fill="#ff5f57"/>
  <circle cx="40" cy="26" r="4.5" fill="#febc2e"/>
  <circle cx="56" cy="26" r="4.5" fill="#28c840"/>

  <text x="80" y="31" fill="#e8edf2" font-size="15" font-weight="700" letter-spacing="0.5">PAPER TRADING TERMINAL</text>

  <circle cx="806" cy="26" r="4" fill="#3ddc84" filter="url(#glow)">
    <animate attributeName="opacity" values="1;0.25;1" dur="1.6s" repeatCount="indefinite"/>
  </circle>
  <text x="816" y="31" fill="#3ddc84" font-size="12" font-weight="700" letter-spacing="1">LIVE</text>
  <text x="855" y="31" fill="#5b6672" font-size="11">EST.26</text>

  <line x1="0" y1="46" x2="900" y2="46" stroke="#1c2733" stroke-width="1"/>

  <!-- ticker row -->
  <g font-size="13" font-weight="600">
    <text x="24" y="70" fill="#8b98a5">BTC/USD</text>
    <text x="112" y="70" fill="#e8edf2">118,462.51</text>
    <text x="205" y="70" fill="#3ddc84">&#9650; +2.13%</text>

    <text x="300" y="70" fill="#8b98a5">AAPL</text>
    <text x="358" y="70" fill="#e8edf2">241.82</text>
    <text x="425" y="70" fill="#ff5c5c">&#9660; -0.81%</text>

    <text x="510" y="70" fill="#8b98a5">BBCA</text>
    <text x="568" y="70" fill="#e8edf2">9,850</text>
    <text x="628" y="70" fill="#3ddc84">&#9650; +0.43%</text>

    <text x="710" y="70" fill="#8b98a5">GOLD</text>
    <text x="768" y="70" fill="#ff5c5c">&#9660; -0.19%</text>
  </g>
  <g font-size="13" font-weight="600">
    <text x="24" y="94" fill="#8b98a5">SOL/USD</text>
    <text x="112" y="94" fill="#e8edf2">188.72</text>
    <text x="205" y="94" fill="#3ddc84">&#9650; +6.20%</text>

    <text x="300" y="94" fill="#8b98a5">NVDA</text>
    <text x="358" y="94" fill="#e8edf2">182.44</text>
    <text x="425" y="94" fill="#3ddc84">&#9650; +1.44%</text>

    <text x="510" y="94" fill="#8b98a5">IHSG</text>
    <text x="568" y="94" fill="#3ddc84">&#9650; +0.58%</text>

    <text x="710" y="94" fill="#8b98a5">DXY</text>
    <text x="768" y="94" fill="#ff5c5c">&#9660; -0.11%</text>
  </g>

  <line x1="0" y1="110" x2="900" y2="110" stroke="#1c2733" stroke-width="1"/>
  <text x="450" y="127" fill="#5b6672" font-size="11" letter-spacing="2" text-anchor="middle">CANDLESTICK CHART &#183; SIM/IDX</text>

  <!-- chart -->
  <rect x="40" y="130" width="820" height="130" fill="url(#chartFade)"/>
<line x1="40" y1="130.0" x2="860" y2="130.0" stroke="#152029" stroke-width="1"/>
<line x1="40" y1="162.5" x2="860" y2="162.5" stroke="#152029" stroke-width="1"/>
<line x1="40" y1="195.0" x2="860" y2="195.0" stroke="#152029" stroke-width="1"/>
<line x1="40" y1="227.5" x2="860" y2="227.5" stroke="#152029" stroke-width="1"/>
<line x1="40" y1="260.0" x2="860" y2="260.0" stroke="#152029" stroke-width="1"/>
<line x1="52.1" y1="223.5" x2="52.1" y2="230.4" stroke="#ff5c5c" stroke-width="1.1"/>
<rect x="45.4" y="225.0" width="13.3" height="1.6" fill="#ff5c5c"/>
<line x1="76.2" y1="223.1" x2="76.2" y2="234.4" stroke="#ff5c5c" stroke-width="1.1"/>
<rect x="69.5" y="226.5" width="13.3" height="5.3" fill="#ff5c5c"/>
<line x1="100.3" y1="228.6" x2="100.3" y2="238.3" stroke="#ff5c5c" stroke-width="1.1"/>
<rect x="93.7" y="231.8" width="13.3" height="5.5" fill="#ff5c5c"/>
<line x1="124.4" y1="235.5" x2="124.4" y2="238.5" stroke="#3ddc84" stroke-width="1.1"/>
<rect x="117.8" y="236.6" width="13.3" height="1.6" fill="#3ddc84"/>
<line x1="148.5" y1="231.2" x2="148.5" y2="238.0" stroke="#3ddc84" stroke-width="1.1"/>
<rect x="141.9" y="236.0" width="13.3" height="1.6" fill="#3ddc84"/>
<line x1="172.6" y1="232.2" x2="172.6" y2="243.9" stroke="#ff5c5c" stroke-width="1.1"/>
<rect x="166.0" y="236.0" width="13.3" height="2.5" fill="#ff5c5c"/>
<line x1="196.8" y1="232.5" x2="196.8" y2="244.0" stroke="#3ddc84" stroke-width="1.1"/>
<rect x="190.1" y="235.2" width="13.3" height="3.3" fill="#3ddc84"/>
<line x1="220.9" y1="230.3" x2="220.9" y2="242.6" stroke="#ff5c5c" stroke-width="1.1"/>
<rect x="214.2" y="235.2" width="13.3" height="5.1" fill="#ff5c5c"/>
<line x1="245.0" y1="239.0" x2="245.0" y2="246.1" stroke="#ff5c5c" stroke-width="1.1"/>
<rect x="238.4" y="240.4" width="13.3" height="3.5" fill="#ff5c5c"/>
<line x1="269.1" y1="234.7" x2="269.1" y2="247.4" stroke="#3ddc84" stroke-width="1.1"/>
<rect x="262.5" y="236.4" width="13.3" height="7.4" fill="#3ddc84"/>
<line x1="293.2" y1="229.1" x2="293.2" y2="239.8" stroke="#3ddc84" stroke-width="1.1"/>
<rect x="286.6" y="231.7" width="13.3" height="4.7" fill="#3ddc84"/>
<line x1="317.4" y1="230.6" x2="317.4" y2="237.9" stroke="#ff5c5c" stroke-width="1.1"/>
<rect x="310.7" y="231.7" width="13.3" height="4.4" fill="#ff5c5c"/>
<line x1="341.5" y1="227.7" x2="341.5" y2="238.4" stroke="#3ddc84" stroke-width="1.1"/>
<rect x="334.8" y="230.6" width="13.3" height="5.6" fill="#3ddc84"/>
<line x1="365.6" y1="223.4" x2="365.6" y2="232.8" stroke="#3ddc84" stroke-width="1.1"/>
<rect x="359.0" y="226.4" width="13.3" height="4.2" fill="#3ddc84"/>
<line x1="389.7" y1="214.6" x2="389.7" y2="228.4" stroke="#3ddc84" stroke-width="1.1"/>
<rect x="383.1" y="218.8" width="13.3" height="7.6" fill="#3ddc84"/>
<line x1="413.8" y1="211.3" x2="413.8" y2="223.8" stroke="#3ddc84" stroke-width="1.1"/>
<rect x="407.2" y="214.6" width="13.3" height="4.2" fill="#3ddc84"/>
<line x1="437.9" y1="205.6" x2="437.9" y2="220.1" stroke="#3ddc84" stroke-width="1.1"/>
<rect x="431.3" y="207.8" width="13.3" height="6.8" fill="#3ddc84"/>
<line x1="462.1" y1="205.0" x2="462.1" y2="215.2" stroke="#ff5c5c" stroke-width="1.1"/>
<rect x="455.4" y="207.8" width="13.3" height="2.9" fill="#ff5c5c"/>
<line x1="486.2" y1="207.6" x2="486.2" y2="214.0" stroke="#ff5c5c" stroke-width="1.1"/>
<rect x="479.5" y="210.7" width="13.3" height="2.3" fill="#ff5c5c"/>
<line x1="510.3" y1="202.4" x2="510.3" y2="216.6" stroke="#3ddc84" stroke-width="1.1"/>
<rect x="503.7" y="206.9" width="13.3" height="6.1" fill="#3ddc84"/>
<line x1="534.4" y1="195.0" x2="534.4" y2="211.0" stroke="#3ddc84" stroke-width="1.1"/>
<rect x="527.8" y="197.3" width="13.3" height="9.6" fill="#3ddc84"/>
<line x1="558.5" y1="188.6" x2="558.5" y2="200.3" stroke="#3ddc84" stroke-width="1.1"/>
<rect x="551.9" y="192.2" width="13.3" height="5.1" fill="#3ddc84"/>
<line x1="582.6" y1="177.6" x2="582.6" y2="195.3" stroke="#3ddc84" stroke-width="1.1"/>
<rect x="576.0" y="183.0" width="13.3" height="9.2" fill="#3ddc84"/>
<line x1="606.8" y1="175.4" x2="606.8" y2="187.2" stroke="#3ddc84" stroke-width="1.1"/>
<rect x="600.1" y="176.5" width="13.3" height="6.5" fill="#3ddc84"/>
<line x1="630.9" y1="164.6" x2="630.9" y2="181.3" stroke="#3ddc84" stroke-width="1.1"/>
<rect x="624.2" y="170.2" width="13.3" height="6.3" fill="#3ddc84"/>
<line x1="655.0" y1="166.9" x2="655.0" y2="174.2" stroke="#3ddc84" stroke-width="1.1"/>
<rect x="648.4" y="169.6" width="13.3" height="1.6" fill="#3ddc84"/>
<line x1="679.1" y1="166.6" x2="679.1" y2="174.7" stroke="#ff5c5c" stroke-width="1.1"/>
<rect x="672.5" y="169.6" width="13.3" height="3.5" fill="#ff5c5c"/>
<line x1="703.2" y1="172.0" x2="703.2" y2="179.5" stroke="#ff5c5c" stroke-width="1.1"/>
<rect x="696.6" y="173.1" width="13.3" height="1.9" fill="#ff5c5c"/>
<line x1="727.4" y1="173.0" x2="727.4" y2="179.2" stroke="#ff5c5c" stroke-width="1.1"/>
<rect x="720.7" y="175.0" width="13.3" height="1.6" fill="#ff5c5c"/>
<line x1="751.5" y1="164.9" x2="751.5" y2="179.5" stroke="#3ddc84" stroke-width="1.1"/>
<rect x="744.8" y="166.1" width="13.3" height="10.4" fill="#3ddc84"/>
<line x1="775.6" y1="155.7" x2="775.6" y2="170.8" stroke="#3ddc84" stroke-width="1.1"/>
<rect x="769.0" y="160.7" width="13.3" height="5.4" fill="#3ddc84"/>
<line x1="799.7" y1="148.0" x2="799.7" y2="163.5" stroke="#3ddc84" stroke-width="1.1"/>
<rect x="793.1" y="150.2" width="13.3" height="10.5" fill="#3ddc84"/>
<line x1="823.8" y1="142.6" x2="823.8" y2="155.6" stroke="#3ddc84" stroke-width="1.1"/>
<rect x="817.2" y="147.6" width="13.3" height="2.5" fill="#3ddc84"/>
<line x1="847.9" y1="146.0" x2="847.9" y2="150.3" stroke="#ff5c5c" stroke-width="1.1"/>
<rect x="841.3" y="147.6" width="13.3" height="1.6" fill="#ff5c5c"/>

  <line x1="0" y1="270" x2="900" y2="270" stroke="#1c2733" stroke-width="1"/>

  <!-- buttons -->
  <g>
    <rect x="30" y="284" width="410" height="24" rx="5" fill="#3ddc84" fill-opacity="0.1" stroke="#3ddc84" stroke-opacity="0.5"/>
    <text x="235" y="300" fill="#3ddc84" font-size="13" font-weight="800" letter-spacing="1.5" text-anchor="middle">&#9650; BUY</text>

    <rect x="460" y="284" width="410" height="24" rx="5" fill="#ff5c5c" fill-opacity="0.1" stroke="#ff5c5c" stroke-opacity="0.5"/>
    <text x="665" y="300" fill="#ff5c5c" font-size="13" font-weight="800" letter-spacing="1.5" text-anchor="middle">&#9660; SELL</text>
  </g>
</svg>
